<?xml version="1.0" encoding="UTF-8"?>
<svg version="1.1" xmlns="http://www.w3.org/2000/svg" width="1280" height="446">
<path d="M0 0 C29.34746643 24.61791605 46.00885598 55.36675978 49.4609375 93.75390625 C52.00260973 132.80323413 42.75332743 170.82992771 16.921875 200.890625 C15.89633454 202.05612524 14.86796814 203.21914904 13.8359375 204.37890625 C13.06507813 205.25160156 12.29421875 206.12429687 11.5 207.0234375 C-10.88562296 230.7821563 -44.29601051 241.3346875 -76.15405273 242.48706055 C-115.37484333 243.27359519 -153.11366427 236.39850888 -182.47583008 208.46777344 C-210.09417161 181.41094659 -220.80109544 144.67745279 -221.19140625 106.71972656 C-220.77673195 68.96955545 -208.20371397 35.19893884 -181.9765625 7.81640625 C-135.78463319 -37.2833634 -50.22027544 -39.55706627 0 0 Z M-131.21484375 48.12109375 C-142.87613481 61.62856115 -148.62811547 81.76256043 -149.1640625 99.37890625 C-149.20402344 100.6628125 -149.24398437 101.94671875 -149.28515625 103.26953125 C-149.74547578 125.8069837 -146.00824061 150.25631703 -130.7265625 167.87890625 C-119.26680698 179.66718764 -106.51652388 184.08260167 -90.05908203 184.42236328 C-72.95884946 184.35606819 -58.41546434 180.09466111 -45.5390625 168.44140625 C-30.09960496 152.22720891 -22.70912693 127.55403652 -23.015625 105.578125 C-24.07849625 82.67045245 -30.1616249 60.33192551 -47.4140625 44.12890625 C-71.02230417 25.18865782 -110.11536012 26.33838874 -131.21484375 48.12109375 Z " fill="#FEFEFE" transform="translate(923.1640625,49.62109375)"/>
<path d="M0 0 C1.06122574 -0.0098568 1.06122574 -0.0098568 2.14389038 -0.01991272 C4.48858745 -0.03964845 6.83322055 -0.05130714 9.17797852 -0.0612793 C9.97777697 -0.06535482 10.77757542 -0.06943035 11.60161018 -0.07362938 C15.8325487 -0.09448853 20.06345477 -0.10879246 24.29443359 -0.11816406 C28.67070446 -0.12924503 33.04646914 -0.16366424 37.42256069 -0.20333576 C40.78283149 -0.2294372 44.14298031 -0.23784995 47.50334358 -0.24144554 C49.11693819 -0.24632616 50.73052683 -0.25798194 52.34402275 -0.27648354 C54.59955301 -0.30074515 56.85375514 -0.29993499 59.109375 -0.29296875 C61.03558937 -0.30176811 61.03558937 -0.30176811 63.00071716 -0.31074524 C66.11938477 0.17700195 66.11938477 0.17700195 67.98898315 2.07026672 C69.17379503 4.27840663 70.26472303 6.46831091 71.25610352 8.77075195 C71.65982178 9.69927979 72.06354004 10.62780762 72.47949219 11.58447266 C72.91753174 12.60500732 73.35557129 13.62554199 73.80688477 14.67700195 C74.79562903 16.95210637 75.78526541 19.22682322 76.77563477 21.5012207 C77.03994797 22.10975388 77.30426117 22.71828705 77.57658386 23.34526062 C80.60885863 30.32092436 83.70180207 37.26945814 86.79556274 44.21801758 C87.8183687 46.5152955 88.840444 48.81289718 89.86230469 51.1105957 C91.2542556 54.24041382 92.64643759 57.37012895 94.03881836 60.49975586 C97.06923719 67.31169271 100.09675196 74.12492011 103.12442017 80.93807983 C104.78928316 84.68444285 106.45434422 88.43071784 108.11938477 92.17700195 C108.78605238 93.67700153 109.45271904 95.17700153 110.11938477 96.67700195 C110.44938477 97.41950195 110.77938477 98.16200195 111.11938477 98.92700195 C130.11938475 141.67700193 130.11938475 141.67700193 131.11930847 143.92683411 C131.78622568 145.42739527 132.45314666 146.92795476 133.12007141 148.42851257 C134.78293577 152.16991299 136.44573526 155.91134221 138.10839844 159.65283203 C141.15368133 166.50545394 144.19951603 173.35782852 147.24765015 180.20918274 C159.83569946 208.50378035 159.83569946 208.50378035 165.86938477 222.23950195 C169.77128795 231.12106809 173.68698359 239.99640268 177.61938477 248.86450195 C178.37687012 250.57682007 178.37687012 250.57682007 179.1496582 252.32373047 C179.62435547 253.39292725 180.09905273 254.46212402 180.58813477 255.5637207 C181.00514648 256.5043335 181.4221582 257.44494629 181.85180664 258.4140625 C182.77825261 260.43343636 183.76186019 262.42685881 184.77758789 264.40283203 C186.11938477 267.17700195 186.11938477 267.17700195 186.11938477 269.17700195 C178.08607121 270.05997731 170.15431752 270.3241195 162.07641602 270.30981445 C160.86797531 270.31077118 159.65953461 270.31172791 158.41447449 270.31271362 C155.87739001 270.31339001 153.34030375 270.31157378 150.80322266 270.30737305 C146.93265898 270.30200303 143.06221058 270.30734376 139.19165039 270.3137207 C136.71573868 270.3130601 134.23982704 270.31177931 131.76391602 270.30981445 C130.61478226 270.31183868 129.4656485 270.31386292 128.2816925 270.31594849 C116.80940807 270.28262064 116.80940807 270.28262064 111.11938477 269.17700195 C109.08032227 266.66918945 109.08032227 266.66918945 107.49438477 263.05200195 C107.17993408 262.36098389 106.8654834 261.66996582 106.54150391 260.95800781 C105.8050313 259.32955654 105.08334632 257.69437423 104.37280273 256.05444336 C102.96026085 252.81170501 101.49786014 249.59408316 100.02954102 246.3762207 C97.64691808 241.14797859 95.28243209 235.91192841 92.93188477 230.66918945 C89.31808381 222.61145151 85.68425557 214.56292657 82.03494263 206.52120972 C81.08219649 204.42031664 80.1318701 202.31834085 79.18164062 200.21630859 C75.97017905 193.12937672 72.6768418 186.09876481 69.11938477 179.17700195 C62.12885111 188.21949971 55.21775179 197.29601462 48.63110352 206.63793945 C48.23622238 207.16919937 47.84134125 207.70045929 47.43449402 208.24781799 C46.01292901 210.25262759 46.01292901 210.25262759 44.70527649 212.88340759 C41.98315529 217.55485376 39.95987566 220.64684455 34.6191864 222.1852417 C30.27948245 222.68602783 25.94745522 222.57241877 21.58813477 222.4699707 C19.98529803 222.47189484 18.38246046 222.47866991 16.77966309 222.49006653 C12.58304275 222.50699153 8.38969025 222.45848726 4.19360352 222.39587402 C-0.0967401 222.3435875 -4.38689797 222.35382456 -8.67749023 222.35864258 C-17.07959289 222.3589412 -25.47927637 222.29005127 -33.88061523 222.17700195 C-34.98611874 224.54283878 -36.0912947 226.90882772 -37.19628906 229.27490234 C-37.50544502 229.93642555 -37.81460098 230.59794876 -38.13312531 231.27951813 C-41.45365787 238.39096815 -44.71023752 245.53134012 -47.96069336 252.67504883 C-48.85142723 254.62551458 -49.7518183 256.57160863 -50.66333008 258.51245117 C-51.43414914 260.19971937 -52.15971318 261.90903599 -52.82055664 263.64233398 C-53.71264648 265.8371582 -53.71264648 265.8371582 -55.88061523 269.17700195 C-63.24960614 270.7823275 -70.93558372 270.30423605 -78.44311523 270.2746582 C-79.84415638 270.27278991 -81.24519819 270.27136795 -82.64624023 270.27037048 C-86.30895841 270.26657771 -89.97163606 270.25677561 -93.63433838 270.2456665 C-97.38178967 270.23538222 -101.1292476 270.23085792 -104.87670898 270.22583008 C-112.21136275 270.21514999 -119.54598328 270.19811315 -126.88061523 270.17700195 C-128.20025937 266.21806954 -126.84459128 264.17869875 -125.18139648 260.59106445 C-124.72859566 259.5834053 -124.72859566 259.5834053 -124.26664734 258.5553894 C-123.25094335 256.30016897 -122.22184522 254.0513068 -121.19311523 251.80200195 C-120.46874415 250.1989666 -119.74546091 248.5954393 -119.02319336 246.99145508 C-117.46717888 243.53761185 -115.90679276 240.08578817 -114.34399414 236.63500977 C-110.57022122 228.28883742 -106.86374194 219.91270781 -103.15048218 211.53948975 C-101.0214956 206.74040577 -98.88834083 201.94317516 -96.75561523 197.14575195 C-95.92226225 195.27076069 -95.08892857 193.39576084 -94.25561523 191.52075195 C-89.75561524 181.39575196 -89.75561524 181.39575196 -88.74491882 179.12168884 C-88.08786141 177.64330714 -87.43080776 176.16492377 -86.77375793 174.6865387 C-85.17103784 171.08037446 -83.56825298 167.47423903 -81.96533203 163.86816406 C-78.70555377 156.53447162 -75.44668466 149.20037708 -72.18948364 141.86553955 C-63.92672788 123.25913331 -55.66141567 104.65421089 -47.32250977 86.08178711 C-43.88894353 78.432841 -40.47191212 70.77674103 -37.06811523 63.11450195 C-36.35244385 61.50442261 -36.35244385 61.50442261 -35.62231445 59.86181641 C-33.02533098 54.01625974 -30.43401308 48.16826417 -27.84950256 42.31718445 C-26.42215664 39.08705797 -24.99252243 35.85794665 -23.56265259 32.62893677 C-22.8688611 31.06061988 -22.17609816 29.4918475 -21.48446655 27.9225769 C-9.20801036 0.07063214 -9.20801036 0.07063214 0 0 Z M27.11938477 84.17700195 C26.7487793 84.99338135 26.37817383 85.80976074 25.99633789 86.65087891 C24.538385 89.86189969 23.08004958 93.07274621 21.62145996 96.28347778 C20.95361873 97.75370069 20.28589404 99.22397655 19.61828613 100.69430542 C15.65118696 109.4307219 11.67212767 118.16141157 7.66625977 126.88012695 C6.94031999 128.4617383 6.2144082 130.0433625 5.48852539 131.625 C4.43703869 133.91594079 3.38463307 136.20643369 2.32910156 138.49551392 C1.34529437 140.62911475 0.36487204 142.76424341 -0.61499023 144.8996582 C-0.90190735 145.51927429 -1.18882446 146.13889038 -1.48443604 146.77728271 C-3.50843653 151.19953285 -5.16183935 155.59359959 -6.88061523 160.17700195 C15.88938477 160.17700195 38.65938477 160.17700195 62.11938477 160.17700195 C56.33900129 146.68944052 50.5151183 133.24314474 44.49438477 119.86450195 C43.41767356 117.46896581 42.34150685 115.07318781 41.26617432 112.67703247 C40.56653466 111.11841114 39.86599312 109.56019429 39.16448975 108.00241089 C37.44566642 104.17667745 35.75383962 100.34215719 34.10864258 96.48413086 C33.79013336 95.74081009 33.47162415 94.99748932 33.14346313 94.23164368 C32.54247658 92.82440789 31.94695603 91.4148212 31.35775757 90.00260925 C30.01055775 86.42739378 30.01055775 86.42739378 27.11938477 84.17700195 Z " fill="#FEFEFE" transform="translate(168.880615234375,22.822998046875)"/>
<path d="M0 0 C1.24962524 -0.00014603 2.49925049 -0.00029205 3.78674316 -0.0004425 C7.1911437 0.00013221 10.59548258 0.00512588 13.99987221 0.01213145 C17.56595297 0.01840927 21.13203468 0.01897228 24.69812012 0.02015686 C31.4410617 0.02325717 38.18398695 0.03145294 44.92692137 0.04150635 C52.60773236 0.05270798 60.28854417 0.05818812 67.96936131 0.06320179 C83.7601826 0.07363671 99.55098763 0.09121084 115.34179688 0.11352539 C115.67179688 0.77352539 116.00179687 1.43352539 116.34179688 2.11352539 C115.46826172 4.46655273 115.46826172 4.46655273 114.05273438 7.44946289 C113.52905273 8.56409912 113.00537109 9.67873535 112.46582031 10.82714844 C111.88294866 12.04767245 111.29993748 13.26812985 110.71679688 14.48852539 C110.12778125 15.7352997 109.53957515 16.98245675 108.95214844 18.22998047 C108.03407517 20.17879202 107.1151479 22.1271701 106.19311523 24.07411194 C103.97449301 28.75900873 101.78601379 33.45706535 99.61523438 38.16430664 C99.31745087 38.80944214 99.01966736 39.45457764 98.71286011 40.1192627 C97.55183214 42.63496292 96.39109178 45.15079196 95.23260498 47.66766357 C94.43253375 49.40448026 93.62942899 51.13989859 92.82617188 52.87524414 C92.36952148 53.86484131 91.91287109 54.85443848 91.44238281 55.87402344 C90.34179688 58.11352539 90.34179688 58.11352539 89.34179688 59.11352539 C80.38349214 60.40014518 71.38480998 60.27848913 62.35403824 60.31275558 C59.48505351 60.32467924 56.61621043 60.34416306 53.74728394 60.36587524 C45.59670791 60.4270529 37.44615137 60.48146805 29.29541016 60.51489258 C24.29111772 60.53595486 19.28709336 60.57134012 14.28295517 60.61565018 C12.38938443 60.62970775 10.49576638 60.63850917 8.60214615 60.64170456 C-8.25616212 60.67317515 -24.51199807 62.1144488 -37.47070312 74.23852539 C-55.60306491 93.97755215 -56.63183674 121.71646635 -55.65820312 147.11352539 C-54.60396388 165.83725358 -50.50982929 184.93516124 -37.22851562 198.91430664 C-29.58923042 205.45065553 -21.19990342 208.18007469 -11.30737305 208.31884766 C-10.04644333 208.33879288 -8.78551361 208.3587381 -7.4863739 208.37928772 C-6.12047445 208.39626807 -4.75457374 208.41314702 -3.38867188 208.42993164 C-1.98333653 208.45052013 -0.57800712 208.47151709 0.82731628 208.49290466 C4.51467061 208.54792974 8.20207899 208.59742473 11.88952637 208.64575195 C15.65686824 208.69611043 19.42413221 208.75172139 23.19140625 208.80688477 C30.57480371 208.9142268 37.95826622 209.01572427 45.34179688 209.11352539 C45.33735565 207.85263092 45.33291443 206.59173645 45.32833862 205.29263306 C45.28786244 193.43205365 45.25784616 181.57148819 45.23817253 169.71085548 C45.22771826 163.61262772 45.21352915 157.51445554 45.19091797 151.41625977 C45.1692481 145.53538845 45.15724064 139.65457072 45.15204239 133.77366257 C45.14833608 131.52569103 45.14109899 129.27772254 45.13033676 127.02977371 C45.11589968 123.8904706 45.11381566 120.7513913 45.11474609 117.61206055 C45.10755554 116.67482651 45.10036499 115.73759247 45.09295654 114.7719574 C45.09570587 113.91937851 45.0984552 113.06679962 45.10128784 112.18838501 C45.09944426 111.44541986 45.09760067 110.70245472 45.09570122 109.93697548 C45.34179688 108.11352539 45.34179688 108.11352539 47.34179688 106.11352539 C50.04322815 105.86628723 50.04322815 105.86628723 53.51977539 105.87060547 C54.81774551 105.86752884 56.11571564 105.86445221 57.45301819 105.86128235 C58.87558163 105.86817958 60.29814332 105.87544651 61.72070312 105.88305664 C63.17276468 105.88424832 64.62482702 105.88470163 66.07688904 105.88444519 C69.12088848 105.88601035 72.16477036 105.89430317 75.20874023 105.90771484 C79.11867464 105.92471987 83.02847995 105.92852878 86.938447 105.92776966 C89.93663271 105.92804101 92.93478996 105.93351635 95.93296623 105.9407711 C97.37512941 105.94396221 98.81729583 105.9459262 100.25946236 105.94666481 C102.27072426 105.94882283 104.28197424 105.9583519 106.29321289 105.96826172 C107.43967789 105.97207352 108.58614288 105.97588531 109.76734924 105.97981262 C112.34179688 106.11352539 112.34179688 106.11352539 113.34179688 107.11352539 C113.45307522 109.17159105 113.49316387 111.2335133 113.50674438 113.29454041 C113.51238793 113.94735208 113.51803147 114.60016375 113.52384603 115.27275759 C113.54164772 117.47610162 113.55229019 119.67942334 113.56298828 121.8828125 C113.57419722 123.4560526 113.58582916 125.02928973 113.59785461 126.6025238 C113.62926301 130.88756464 113.65434208 135.17262145 113.67805147 139.45771098 C113.70358458 143.9331353 113.73393394 148.40852738 113.76351929 152.88392639 C113.8124042 160.40209106 113.85707398 167.92027239 113.89941406 175.43847656 C113.94848429 184.14026607 114.00478325 192.84198671 114.06483519 201.54370683 C114.1161183 209.00269865 114.16346967 216.46170787 114.20752275 223.92074591 C114.23387122 228.38094215 114.26160971 232.8411183 114.29289627 237.30128288 C114.32209481 241.49462892 114.34637232 245.68797478 114.36679649 249.88137245 C114.3751236 251.42376113 114.38518917 252.9661415 114.39708519 254.50850677 C114.41299645 256.60751988 114.42272171 258.7064711 114.43081665 260.80552673 C114.44131263 262.57065566 114.44131263 262.57065566 114.45202065 264.37144375 C114.34179688 267.11352539 114.34179688 267.11352539 113.34179688 269.11352539 C95.6597256 269.1839199 77.97769868 269.23666152 60.29551888 269.26896191 C52.08352063 269.28436487 43.87160996 269.305327 35.65966797 269.33984375 C28.49375718 269.36994916 21.32790988 269.389148 14.16193759 269.39579087 C10.37520341 269.39966774 6.58865068 269.40863774 2.80197525 269.43071556 C-16.37911045 269.53818158 -34.90163403 269.39342589 -53.22070312 262.98852539 C-54.09146484 262.68849609 -54.96222656 262.3884668 -55.859375 262.0793457 C-70.43321536 256.86529122 -82.37173297 249.65618805 -93.65820312 239.11352539 C-94.33109375 238.52055664 -95.00398438 237.92758789 -95.69726562 237.31665039 C-114.16432796 220.28310431 -122.8667439 193.19305779 -126.65820312 169.11352539 C-126.86316406 167.84637695 -127.068125 166.57922852 -127.27929688 165.27368164 C-132.94729281 125.9233485 -128.76841389 79.12122844 -104.65820312 46.11352539 C-100.95505961 41.49124267 -96.87172757 37.26797483 -92.65820312 33.11352539 C-91.91957031 32.36458008 -91.1809375 31.61563477 -90.41992188 30.84399414 C-67.37135807 8.83717333 -30.97039264 -0.09532063 0 0 Z " fill="#FEFEFE" transform="translate(574.658203125,22.886474609375)"/>
<path d="M0 0 C0.66671722 -0.0065712 1.33343445 -0.0131424 2.02035522 -0.01991272 C4.23582053 -0.03968926 6.45121788 -0.05131853 8.66674805 -0.0612793 C9.79975373 -0.06739259 9.79975373 -0.06739259 10.95564842 -0.07362938 C14.95431624 -0.09450982 18.95294956 -0.1088023 22.95166016 -0.11816406 C27.08461814 -0.12922615 31.21703734 -0.1636174 35.34980488 -0.20333576 C38.52482612 -0.22947132 41.69971852 -0.23785319 44.87483788 -0.24144554 C46.39829327 -0.24632036 47.92174258 -0.25795989 49.44509315 -0.27648354 C51.57841334 -0.30080927 53.71033385 -0.29992294 55.84375 -0.29296875 C57.66456841 -0.30176811 57.66456841 -0.30176811 59.52217102 -0.31074524 C63.86722114 0.37426636 65.30641645 2.47212045 67.87353516 5.81420898 C68.23068604 6.34900879 68.58783691 6.88380859 68.95581055 7.43481445 C69.3720166 8.0508252 69.78822266 8.66683594 70.21704102 9.30151367 C70.65806152 9.9616748 71.09908203 10.62183594 71.5534668 11.30200195 C75.60951505 17.28622255 79.7466422 23.19974607 83.9909668 29.05200195 C84.53205078 29.79820801 85.07313477 30.54441406 85.63061523 31.31323242 C86.73509891 32.83491475 87.84008154 34.35623504 88.94555664 35.87719727 C91.73830817 39.7222308 94.52101921 43.57450851 97.3034668 47.42700195 C97.84511475 48.17675293 98.3867627 48.92650391 98.94482422 49.69897461 C103.44165539 55.92724616 107.91207277 62.17403475 112.37036133 68.42993164 C114.65827121 71.6389248 116.94990994 74.84525524 119.2409668 78.05200195 C120.08733567 79.23688728 120.93369128 80.42178208 121.7800293 81.60668945 C122.68881836 82.87899414 122.68881836 82.87899414 123.6159668 84.17700195 C128.80611763 78.07739871 133.38751159 71.68205416 137.8659668 65.05200195 C142.45770066 58.25748583 147.19983096 51.62909408 152.16137695 45.10083008 C157.34509357 38.2620817 162.26108405 31.24289467 167.18432617 24.21557617 C169.43899158 21.00506182 171.71252166 17.80816768 173.9909668 14.61450195 C174.74120117 13.56133789 175.49143555 12.50817383 176.2644043 11.4230957 C176.65460754 10.90734482 177.04481079 10.39159393 177.44683838 9.86021423 C178.68229283 8.17383787 178.68229283 8.17383787 179.60687256 6.13746643 C181.03859848 3.56332814 182.27568594 1.99070434 184.6159668 0.17700195 C189.83436393 -0.96644906 194.99115373 -0.75539585 200.2956543 -0.60424805 C201.83404593 -0.58931372 203.3724758 -0.57793232 204.91091919 -0.56994629 C208.94627252 -0.53950355 212.97929583 -0.46101633 217.01373291 -0.37231445 C221.1360319 -0.29024833 225.25871014 -0.25389101 229.3815918 -0.21362305 C237.46078221 -0.12800752 245.53808411 0.00839612 253.6159668 0.17700195 C253.6159668 4.33722608 253.4841924 4.84965246 251.15893555 7.94262695 C250.62905029 8.65942627 250.09916504 9.37622559 249.55322266 10.11474609 C248.97580322 10.87779053 248.39838379 11.64083496 247.8034668 12.42700195 C246.59878608 14.05475799 245.39568775 15.68368619 244.1940918 17.3137207 C243.58887695 18.13146973 242.98366211 18.94921875 242.36010742 19.79174805 C239.85008787 23.22440357 237.44465743 26.72348607 235.0534668 30.23950195 C226.74948444 42.39938902 218.20506455 54.37962557 209.55102539 66.29223633 C205.5578086 71.81378019 201.69222548 77.41377691 197.8659668 83.05200195 C185.45988486 101.33308389 185.45988486 101.33308389 181.6159668 105.17700195 C180.26612932 105.29885339 178.91021978 105.35467026 177.55517578 105.38232422 C176.69435898 105.40226944 175.83354218 105.42221466 174.94664001 105.44276428 C174.01122879 105.45947678 173.07581757 105.47618927 172.11206055 105.4934082 C171.15904556 105.5141893 170.20603058 105.5349704 169.22413635 105.55638123 C166.16732269 105.62198373 163.11042023 105.68081113 160.0534668 105.73950195 C157.98640017 105.78267701 155.91934266 105.82629096 153.85229492 105.87036133 C148.77361084 105.97767597 143.6948371 106.07891286 138.6159668 106.17700195 C138.95624405 106.62830475 139.2965213 107.07960754 139.64710999 107.54458618 C141.21214604 109.62167906 142.77539381 111.70011146 144.33862305 113.77856445 C144.8737854 114.48827393 145.40894775 115.1979834 145.96032715 115.92919922 C149.85046853 121.10515347 153.56218258 126.37160446 157.2175293 131.71606445 C160.59296583 136.62238951 164.11340251 141.4249643 167.61010742 146.24511719 C171.30072079 151.33895479 174.9418073 156.46446486 178.5534668 161.61450195 C182.82453353 167.69841655 187.1910482 173.7041479 191.6159668 179.67700195 C196.54951639 186.33641749 201.38854244 193.05170103 206.14941406 199.83544922 C211.3534392 207.24551912 216.66216189 214.57852218 221.97485352 221.91088867 C225.22952419 226.40506498 228.47666462 230.90468958 231.72314453 235.40478516 C234.52339537 239.28509032 237.33011719 243.16047 240.1472168 247.02856445 C240.72793945 247.8277832 241.30866211 248.62700195 241.90698242 249.45043945 C243.00769815 250.96502429 244.11040898 252.47816221 245.21557617 253.98950195 C248.56066812 258.59810494 251.66284533 263.30794493 254.6159668 268.17700195 C252.76857486 270.02439389 249.76648316 269.46859466 247.28295898 269.57617188 C246.28993774 269.61976082 246.28993774 269.61976082 245.27685547 269.66423035 C239.12909862 269.91955091 232.97853634 270.0715038 226.82679367 270.19175243 C222.69711708 270.27413089 218.57478333 270.39019127 214.44897461 270.58984375 C187.87428708 271.84408442 187.87428708 271.84408442 180.87893677 267.46273804 C176.6362922 263.39402924 174.01228554 258.75872645 171.66696167 253.41490173 C170.04708954 249.96568273 167.8541268 247.14649758 165.5534668 244.11450195 C164.74233011 242.9857447 163.93457952 241.85453951 163.1315918 240.7199707 C162.72489258 240.14811035 162.31819336 239.57625 161.89916992 238.98706055 C160.03009907 236.3505896 158.16990077 233.70790032 156.30932617 231.06542969 C151.59317672 224.36816103 146.84862631 217.69298503 142.0534668 211.05200195 C141.51786133 210.30982422 140.98225586 209.56764648 140.43041992 208.80297852 C137.75973258 205.11095559 135.0710034 201.43394192 132.3503418 197.77856445 C131.83673096 197.08649902 131.32312012 196.39443359 130.79394531 195.68139648 C129.82213378 194.37450497 128.84624438 193.07063294 127.86572266 191.77026367 C124.6159668 187.39861913 124.6159668 187.39861913 124.6159668 185.17700195 C123.9559668 185.17700195 123.2959668 185.17700195 122.6159668 185.17700195 C122.39553711 185.85504883 122.17510742 186.5330957 121.94799805 187.23168945 C120.22770491 191.03550477 117.8613454 194.0230887 115.3034668 197.30200195 C110.70729575 203.30162669 106.34139359 209.41112121 102.1159668 215.67700195 C97.63952561 222.30280056 92.99617247 228.74662439 88.14648438 235.10302734 C83.62579496 241.06920366 79.40777218 247.22597089 75.24291992 253.44458008 C74.26030577 254.90399545 73.26101404 256.35238152 72.24200439 257.78662109 C70.59097136 260.12351557 70.59097136 260.12351557 69.34381104 262.55163574 C67.66458123 265.32635383 66.18042221 267.16998027 63.6159668 269.17700195 C58.2829175 270.43707536 53.0534304 270.22815041 47.61987305 270.0559082 C46.06049791 270.03910286 44.50107495 270.02630077 42.94163513 270.01731873 C38.85505867 269.98310234 34.77140337 269.89483719 30.68597412 269.79498291 C26.51004555 269.70258656 22.33364052 269.66174158 18.15698242 269.61645508 C9.9753095 269.52019451 1.79600241 269.36678387 -6.3840332 269.17700195 C-5.69639222 266.19960969 -4.90884828 264.18994412 -3.1184082 261.70043945 C-2.64733643 261.03923096 -2.17626465 260.37802246 -1.69091797 259.69677734 C-1.177146 258.98900146 -0.66337402 258.28122559 -0.1340332 257.55200195 C0.4010083 256.80490967 0.9360498 256.05781738 1.48730469 255.28808594 C3.19065952 252.91319479 4.90274327 250.54478093 6.6159668 248.17700195 C7.69310632 246.68113613 8.76993509 245.18504649 9.84643555 243.6887207 C13.64117505 238.42053195 17.45145817 233.16363848 21.26147461 227.90649414 C27.0905954 219.86071422 32.89923796 211.80315224 38.6159668 203.67700195 C44.32966731 195.55515635 50.13544152 187.50206627 55.96166992 179.46069336 C58.74514888 175.61821075 61.52465213 171.77285851 64.3034668 167.92700195 C64.84229492 167.181521 65.38112305 166.43604004 65.9362793 165.66796875 C68.44789674 162.19037405 70.95388379 158.709029 73.4440918 155.21606445 C73.88366211 154.59948975 74.32323242 153.98291504 74.77612305 153.34765625 C75.61141382 152.17342773 76.44482737 150.99786101 77.27612305 149.82080078 C79.94696656 146.05292393 82.74773171 142.43022511 85.75268555 138.9230957 C86.77812831 137.17248611 86.77812831 137.17248611 86.61987305 134.97387695 C85.11181748 130.77244588 82.53304792 127.53859182 79.8659668 123.98950195 C78.67436533 122.37245829 77.48296464 120.75526666 76.29174805 119.13793945 C75.68024902 118.31390625 75.06875 117.48987305 74.4387207 116.64086914 C71.6127888 112.82097834 68.83261964 108.96849089 66.0534668 105.11450195 C65.51560547 104.37047119 64.97774414 103.62644043 64.42358398 102.85986328 C60.28435996 97.12705045 56.20250029 91.35529567 52.13525391 85.57128906 C48.50135994 80.4111 44.81918606 75.28762046 41.1159668 70.17700195 C36.90910756 64.37133636 32.74001407 58.54178476 28.6159668 52.67700195 C24.50770191 46.83694749 20.36228425 41.02568578 16.1784668 35.23950195 C15.64487549 34.50111084 15.11128418 33.76271973 14.56152344 33.00195312 C11.73190584 29.09013537 8.8931349 25.18521119 6.0456543 21.28637695 C5.46098389 20.48321045 4.87631348 19.68004395 4.27392578 18.85253906 C3.16185662 17.32512067 2.04697483 15.79974437 0.92871094 14.27685547 C-2.1498498 10.043039 -4.87301799 5.77149742 -7.3840332 1.17700195 C-5.53079414 -0.67623711 -2.47930975 0.0201461 0 0 Z " fill="#FEFEFE" transform="translate(984.384033203125,22.822998046875)"/>
<path d="M0 0 C0.65202896 -0.00175232 1.30405792 -0.00350464 1.97584534 -0.00531006 C4.14082465 -0.00972751 6.30572291 -0.00679098 8.47070312 -0.00341797 C9.96903499 -0.00409104 11.46736675 -0.00506109 12.96569824 -0.00631714 C16.10979245 -0.00779397 19.2538583 -0.00564005 22.39794922 -0.00097656 C26.43681851 0.00472073 30.47562137 0.00144164 34.51448822 -0.00454903 C37.60960393 -0.00815505 40.70470377 -0.00701586 43.79981995 -0.00442123 C45.28943388 -0.00375208 46.77904923 -0.00457999 48.2686615 -0.00690079 C50.34711548 -0.009428 52.42546044 -0.0055858 54.50390625 0 C56.28142273 0.00119339 56.28142273 0.00119339 58.09484863 0.00241089 C60.75195312 0.12939453 60.75195312 0.12939453 61.75195312 1.12939453 C61.84945042 2.55671439 61.87750757 3.98884112 61.87779427 5.419487 C61.88040201 6.35092797 61.88300976 7.28236894 61.88569653 8.24203539 C61.88346581 9.27732362 61.88123509 10.31261186 61.87893677 11.37927246 C61.88127675 13.01495847 61.88127675 13.01495847 61.88366401 14.68368864 C61.88767916 18.36807797 61.88448238 22.05242671 61.88134766 25.73681641 C61.88270147 28.36585006 61.88448129 30.99488352 61.88665771 33.62391663 C61.89111609 40.04171208 61.89013865 46.45949588 61.88724507 52.8772918 C61.8849913 58.09083854 61.8846784 63.30438199 61.88576889 68.51792908 C61.88592212 69.25852632 61.88607536 69.99912355 61.88623323 70.76216313 C61.88655294 72.26643487 61.88687715 73.7707066 61.88720582 75.27497834 C61.89006081 89.3972481 61.8867733 103.51951138 61.88140546 117.64178008 C61.8769374 129.77258319 61.87771333 141.90337674 61.88232422 154.03417969 C61.88766965 168.10418051 61.88978612 182.17417565 61.88671196 196.24417734 C61.88639339 197.74307156 61.88607902 199.24196577 61.88576889 200.74085999 C61.88553748 201.8472326 61.88553748 201.8472326 61.88530139 202.97595617 C61.88443614 208.18627828 61.88589928 213.39659679 61.88824844 218.60691833 C61.89133771 225.61308391 61.88915419 232.61923104 61.88335419 239.62539482 C61.88202579 242.20506701 61.88242204 244.78474071 61.88461685 247.36441231 C61.88732526 250.86946809 61.88395104 254.37446465 61.87893677 257.8795166 C61.88228285 259.43244895 61.88228285 259.43244895 61.88569653 261.01675367 C61.88308878 261.94819464 61.88048104 262.87963561 61.87779427 263.83930206 C61.87763191 264.6494629 61.87746956 265.45962373 61.87730229 266.29433489 C61.75195312 268.12939453 61.75195312 268.12939453 60.75195312 269.12939453 C58.67119903 269.22883425 56.58703464 269.25739049 54.50390625 269.25878906 C53.85187729 269.26054138 53.19984833 269.2622937 52.52806091 269.26409912 C50.3630816 269.26851657 48.19818334 269.26558005 46.03320312 269.26220703 C44.53487126 269.2628801 43.0365395 269.26385015 41.53820801 269.2651062 C38.3941138 269.26658303 35.25004795 269.26442911 32.10595703 269.25976562 C28.06708774 269.25406834 24.02828488 269.25734742 19.98941803 269.26333809 C16.89430232 269.26694412 13.79920248 269.26580493 10.7040863 269.2632103 C9.21447237 269.26254114 7.72485702 269.26336905 6.23524475 269.26568985 C4.15679077 269.26821706 2.07844581 269.26437486 0 269.25878906 C-1.77751648 269.25759567 -1.77751648 269.25759567 -3.59094238 269.25637817 C-6.24804688 269.12939453 -6.24804688 269.12939453 -7.24804688 268.12939453 C-7.34554417 266.70207467 -7.37360132 265.26994794 -7.37388802 263.83930206 C-7.37649576 262.90786109 -7.37910351 261.97642013 -7.38179028 261.01675367 C-7.37955956 259.98146544 -7.37732884 258.94617721 -7.37503052 257.8795166 C-7.37659051 256.78905926 -7.3781505 255.69860192 -7.37975776 254.57510042 C-7.38377291 250.89071109 -7.38057613 247.20636236 -7.37744141 243.52197266 C-7.37879522 240.892939 -7.38057504 238.26390554 -7.38275146 235.63487244 C-7.38720984 229.21707698 -7.3862324 222.79929319 -7.38333882 216.38149726 C-7.38108505 211.16795053 -7.38077215 205.95440707 -7.38186264 200.74085999 C-7.38201587 200.00026275 -7.38216911 199.25966551 -7.38232698 198.49662593 C-7.38264669 196.99235419 -7.3829709 195.48808246 -7.38329957 193.98381072 C-7.38615456 179.86154096 -7.38286705 165.73927768 -7.37749921 151.61700898 C-7.37303115 139.48620587 -7.37380708 127.35541232 -7.37841797 115.22460938 C-7.3837634 101.15460855 -7.38587987 87.08461342 -7.38280571 73.01461172 C-7.38248714 71.51571751 -7.38217277 70.01682329 -7.38186264 68.51792908 C-7.38170836 67.78034734 -7.38155409 67.04276559 -7.38139514 66.28283289 C-7.38052989 61.07251079 -7.38199303 55.86219228 -7.38434219 50.65187073 C-7.38743146 43.64570515 -7.38524794 36.63955802 -7.37944794 29.63339424 C-7.37811954 27.05372205 -7.37851579 24.47404835 -7.3807106 21.89437675 C-7.38341901 18.38932097 -7.38004479 14.88432441 -7.37503052 11.37927246 C-7.37726124 10.34398423 -7.37949196 9.30869599 -7.38179028 8.24203539 C-7.37918253 7.31059442 -7.37657479 6.37915345 -7.37388802 5.419487 C-7.37372566 4.60932617 -7.37356331 3.79916533 -7.37339604 2.96445417 C-7.08657104 -1.23454458 -3.4161288 0.00229352 0 0 Z " fill="#FEFEFE" transform="translate(369.248046875,22.87060546875)"/>
<path d="M0 0 C2.64 0 5.28 0 8 0 C9.47617836 7.13484172 10.75963583 14.2881756 11.9453125 21.4765625 C12.12005096 22.52782318 12.29478943 23.57908386 12.474823 24.66220093 C13.02642058 27.9828808 13.5757482 31.30393141 14.125 34.625 C14.5011514 36.89195209 14.87745206 39.15887942 15.25390625 41.42578125 C16.17099573 46.95023589 17.0862275 52.4749958 18 58 C19.89306539 52.5028009 21.58907957 47.01780397 23.0078125 41.375 C23.17876434 40.70202881 23.34971619 40.02905762 23.52584839 39.33569336 C24.24604657 36.50028176 24.9584142 33.66291918 25.67138672 30.82568359 C26.19739751 28.73723642 26.72747523 26.6498519 27.2578125 24.5625 C27.5686377 23.32628906 27.87946289 22.09007812 28.19970703 20.81640625 C29 18 29 18 30 17 C33.4375 16.75 33.4375 16.75 37 17 C38.76877334 19.65316002 39.41321719 21.03833141 40.14501953 24.01245117 C40.34507599 24.81305466 40.54513245 25.61365814 40.75125122 26.43852234 C40.95966644 27.29798965 41.16808167 28.15745697 41.3828125 29.04296875 C41.71150833 30.36836418 41.71150833 30.36836418 42.04684448 31.72053528 C42.74509774 34.54152394 43.43513944 37.36444849 44.125 40.1875 C44.59711663 42.10104468 45.06976644 44.01445789 45.54296875 45.92773438 C46.70150368 50.61698684 47.85267839 55.30799194 49 60 C49.19634033 58.78642822 49.39268066 57.57285645 49.5949707 56.32250977 C50.33741149 51.73556164 51.08145169 47.14887405 51.82592773 42.56225586 C52.14536125 40.5929234 52.46438499 38.62352442 52.78295898 36.65405273 C54.76243947 24.41868122 56.80420527 12.19852029 59 0 C61.64 0 64.28 0 67 0 C66.41746418 8.1247579 65.22409519 16.03600619 63.75 24.04296875 C63.53182617 25.25140945 63.31365234 26.45985016 63.08886719 27.70491028 C62.39706165 31.53326898 61.69894488 35.36043887 61 39.1875 C60.30197535 43.02543042 59.6053481 46.8636034 58.91113281 50.70222473 C58.48061458 53.08115394 58.04778949 55.45966721 57.61230469 57.83769226 C56.7765753 62.44303054 55.96553763 67.00826959 55.484375 71.6652832 C55 75 55 75 53 77 C49.375 77.125 49.375 77.125 46 77 C43.65686269 71.88636072 42.0565178 66.90190868 40.73828125 61.44140625 C40.54276169 60.65225327 40.34724213 59.86310028 40.14579773 59.05003357 C39.52910853 56.55552722 38.92067853 54.05909338 38.3125 51.5625 C37.89312469 49.85989132 37.47320804 48.15741589 37.05273438 46.45507812 C36.02889272 42.30489925 35.01244776 38.15297247 34 34 C33.67 34 33.34 34 33 34 C32.70754395 35.1960083 32.41508789 36.3920166 32.11376953 37.62426758 C31.02761826 42.05934291 29.93369273 46.49246987 28.83740234 50.92504883 C28.36392176 52.84412179 27.8925539 54.7637173 27.42333984 56.68383789 C26.74871103 59.44296992 26.0665178 62.20013629 25.3828125 64.95703125 C25.17439728 65.81649857 24.96598206 66.67596588 24.75125122 67.56147766 C24.55119476 68.36208115 24.35113831 69.16268463 24.14501953 69.98754883 C23.97181183 70.6914827 23.79860413 71.39541656 23.62014771 72.12068176 C23 74 23 74 21 77 C19.0546875 77.29296875 19.0546875 77.29296875 16.875 77.1875 C15.59625 77.125625 14.3175 77.06375 13 77 C10.20691799 62.4750104 7.48982151 47.93725344 4.85302734 33.38305664 C4.44605891 31.14209404 4.03682569 28.90154172 3.62548828 26.66137695 C3.02131108 23.37020114 2.42396142 20.07785097 1.828125 16.78515625 C1.6438092 15.78831314 1.45949341 14.79147003 1.26959229 13.76441956 C0.4361224 9.11663322 -0.23311447 4.74547333 0 0 Z " fill="#FFFEFF" transform="translate(672,357)"/>
<path d="M0 0 C4.41077344 -0.07471341 8.82120184 -0.12886513 13.23242188 -0.16479492 C14.72988307 -0.17978888 16.22730105 -0.20019105 17.72460938 -0.22631836 C35.39809763 -0.52676766 35.39809763 -0.52676766 42.20703125 4.69140625 C47.14902688 10.45105566 50.11245325 16.02394363 49.9375 23.765625 C49.02787121 30.54993973 46.52052787 35.86052454 42 41 C39.125 43.0625 39.125 43.0625 37 44 C39.26589258 51.46332571 42.40877759 58.26846165 45.859375 65.24609375 C46.44332031 66.44685547 46.44332031 66.44685547 47.0390625 67.671875 C47.39178223 68.3844043 47.74450195 69.09693359 48.10791016 69.83105469 C49.08289031 72.2015319 49.57300797 74.47781942 50 77 C47.03 77 44.06 77 41 77 C39.14126179 73.07071564 37.29007275 69.13799181 35.44580078 65.2019043 C34.81733249 63.86336742 34.18681074 62.52579269 33.55419922 61.18920898 C32.64529632 59.26795662 31.7438322 57.34336622 30.84375 55.41796875 C30.02680664 53.68196411 30.02680664 53.68196411 29.19335938 51.91088867 C28 49 28 49 28 46 C21.4 46 14.8 46 8 46 C8.08378906 48.07023437 8.16757812 50.14046875 8.25390625 52.2734375 C8.33038161 54.27570148 8.40681958 56.2779671 8.48217773 58.28027344 C8.53559149 59.67325222 8.59092043 61.06615893 8.64819336 62.45898438 C8.73012069 64.45943602 8.80462098 66.4601875 8.87890625 68.4609375 C8.9260376 69.66540527 8.97316895 70.86987305 9.02172852 72.11083984 C9 75 9 75 8 77 C5.66705225 77.04241723 3.33297433 77.04092937 1 77 C-0.67335996 75.32664004 -0.11962895 73.28612091 -0.12442017 71.05252075 C-0.12082489 70.3454599 -0.11722961 69.63839905 -0.11352539 68.90991211 C-0.11367142 68.16849472 -0.11381744 67.42707733 -0.1139679 66.66319275 C-0.11326865 64.20121379 -0.10547574 61.73930957 -0.09765625 59.27734375 C-0.09579211 57.57483461 -0.09436819 55.87232493 -0.09336853 54.16981506 C-0.08954302 49.68006927 -0.07971247 45.19035562 -0.06866455 40.70062256 C-0.05845113 36.12268509 -0.05387106 31.54474244 -0.04882812 26.96679688 C-0.03809022 17.97785043 -0.02101341 8.98892788 0 0 Z M8 8 C8 17.9 8 27.8 8 38 C12.9809375 38.0928125 12.9809375 38.0928125 18.0625 38.1875 C19.09511963 38.21481201 20.12773926 38.24212402 21.19165039 38.27026367 C28.06697472 38.33194064 32.90706855 37.52318092 38.375 33.0625 C41.62487976 28.93765261 41.55251541 24.11076751 41 19 C39.38879472 14.81086628 37.4323836 11.89607366 34 9 C30.94080612 7.98026871 28.87581975 7.88466398 25.67578125 7.90234375 C24.28613159 7.90609009 24.28613159 7.90609009 22.8684082 7.90991211 C21.10823364 7.92356812 21.10823364 7.92356812 19.3125 7.9375 C13.7128125 7.9684375 13.7128125 7.9684375 8 8 Z " fill="#FFFFFF" transform="translate(924,357)"/>
<path d="M0 0 C7.40929351 5.74901704 10.02824738 13.07690237 12 22 C12.51830529 26.85092531 12.56203203 31.62531657 12.5 36.5 C12.51546875 37.71558594 12.5309375 38.93117188 12.546875 40.18359375 C12.49789286 51.65765933 10.67401071 62.75643713 2.3359375 71.1875 C-3.3695735 75.61451857 -10.46139671 77.7799224 -17.6796875 77.37890625 C-24.96009621 76.19001796 -31.53882308 73.77725801 -36.5 68.16015625 C-46.09690335 54.33961575 -45.02937871 36.04510518 -43 20 C-42.10371335 16.03136756 -40.89106443 12.59622761 -39 9 C-38.65066406 8.32839844 -38.30132812 7.65679687 -37.94140625 6.96484375 C-34.48011114 1.32377109 -28.85462055 -2.06319593 -22.4765625 -3.61328125 C-14.36263759 -4.88028214 -7.30103564 -3.96280401 0 0 Z M-29.625 10.625 C-35.51457697 18.20634961 -35.49372537 27.15403933 -35.4375 36.375 C-35.45748047 37.53 -35.47746094 38.685 -35.49804688 39.875 C-35.49346567 47.99290217 -34.8556009 56.7362554 -29.16186523 63.03271484 C-23.87104761 67.74739069 -20.10243011 68.3623675 -13.046875 68.26953125 C-8.47486997 67.86508465 -6.57948165 66.92202583 -3 64 C3.11766605 56.06140985 3.24409795 48.88646803 3.29516602 39.16894531 C3.30664155 37.65029551 3.32702289 36.13168462 3.35668945 34.61328125 C3.81731383 21.00159588 3.81731383 21.00159588 -2.51879883 9.39794922 C-6.90153788 5.58345404 -9.60592207 4.82755259 -15.3125 4.75 C-16.44300781 4.72421875 -17.57351563 4.6984375 -18.73828125 4.671875 C-23.69125741 5.17013847 -26.166754 7.166754 -29.625 10.625 Z " fill="#FEFFFF" transform="translate(358,359)"/>
<path d="M0 0 C5.69193679 3.84620194 9.37692287 7.88461435 10.75 14.75 C10.8325 15.8225 10.915 16.895 11 18 C10 19 10 19 6.4375 19.0625 C5.303125 19.041875 4.16875 19.02125 3 19 C2.69707031 18.38511719 2.39414063 17.77023437 2.08203125 17.13671875 C1.66308594 16.32847656 1.24414062 15.52023437 0.8125 14.6875 C0.40644531 13.88699219 0.00039062 13.08648437 -0.41796875 12.26171875 C-2.36608207 9.47663822 -3.89455496 8.38361413 -7 7 C-10.40861813 6.52706565 -10.40861813 6.52706565 -14 6.625 C-15.19625 6.61726563 -16.3925 6.60953125 -17.625 6.6015625 C-21.24935247 7.02943744 -23.10864212 7.81852747 -26 10 C-28.85562369 14.09306063 -29.29294085 17.17312633 -28.91015625 21.97265625 C-27.41560968 25.30171062 -25.06797904 27.19023918 -22 29 C-17.3041063 30.7540745 -12.44187862 31.91727737 -7.5859375 33.140625 C0.57801285 35.38464277 5.9276814 38.87157189 11 45.6875 C12.93884923 52.10993807 13.21312726 59.15376649 10.4375 65.375 C6.98994652 71.15295548 2.55479171 74.7259141 -3.8125 76.875 C-13.93009181 79.42732301 -22.80636737 78.18511546 -31.88671875 72.90234375 C-35.99897988 69.84663334 -38.38068109 65.77419885 -40 61 C-40.25 57.5 -40.25 57.5 -40 55 C-37.36 55 -34.72 55 -32 55 C-31.32845067 56.28913487 -30.66291141 57.58140204 -30 58.875 C-29.62875 59.59429687 -29.2575 60.31359375 -28.875 61.0546875 C-28 63 -28 63 -28 65 C-27.21625 65.309375 -26.4325 65.61875 -25.625 65.9375 C-23 67 -23 67 -21 68 C-13.07670717 68.62687531 -6.39784857 69.08919773 0 64 C2.8476573 59.72851405 2.60203479 56.00892945 2 51 C0.01913537 46.66096318 -2.72494488 45.54758569 -7 43.9375 C-10.02297811 42.92849529 -13.06102193 41.98111774 -16.10546875 41.0390625 C-24.11309187 38.50179282 -32.64193189 35.7104282 -37 28 C-39.01890591 21.71226318 -39.65957928 16.24872765 -37.09375 10.06640625 C-33.44439697 3.17173571 -29.34885363 0.00821008 -21.8671875 -2.34375 C-14.25731684 -4.08551876 -7.03148184 -3.49617279 0 0 Z " fill="#FFFEFF" transform="translate(236,358)"/>
<path d="M0 0 C0.77943466 0.00222061 1.55886932 0.00444122 2.36192322 0.00672913 C3.68317955 0.00684242 3.68317955 0.00684242 5.03112793 0.00695801 C5.98841293 0.01211929 6.94569794 0.01728058 7.93199158 0.02259827 C9.39480812 0.02472069 9.39480812 0.02472069 10.88717651 0.02688599 C14.01542675 0.03250319 17.14360656 0.04505859 20.27183533 0.05775452 C22.38706867 0.0627673 24.50230313 0.06733059 26.61753845 0.07142639 C31.81482829 0.0824782 37.01207678 0.09923305 42.20933533 0.12025452 C42.25175256 2.45320227 42.2502647 4.78728019 42.20933533 7.12025452 C41.20933533 8.12025452 41.20933533 8.12025452 37.88291931 8.23377991 C36.40707976 8.23362081 34.93123464 8.22792766 33.45542908 8.21791077 C32.67998245 8.21649582 31.90453583 8.21508087 31.10559082 8.21362305 C28.61930038 8.20800797 26.13309872 8.19545298 23.64683533 8.18275452 C21.965196 8.17774146 20.28355527 8.17317821 18.60191345 8.16908264 C14.47099203 8.15888284 10.34026351 8.13931057 6.20933533 8.12025452 C6.20933533 16.70025452 6.20933533 25.28025452 6.20933533 34.12025452 C7.69433533 33.62525452 7.69433533 33.62525452 9.20933533 33.12025452 C13.51845253 32.9158763 17.82980636 32.93445122 22.14317322 32.93495178 C24.26764263 32.93275884 26.39159794 32.91457111 28.51597595 32.89564514 C29.86297938 32.89271224 31.20998528 32.89072675 32.55699158 32.88978577 C34.39789368 32.88362244 34.39789368 32.88362244 36.27598572 32.87733459 C39.20933533 33.12025452 39.20933533 33.12025452 41.20933533 35.12025452 C40.64115351 40.68843633 40.64115351 40.68843633 39.20933533 42.12025452 C36.76103106 42.20869245 34.34112934 42.23554203 31.89292908 42.21791077 C31.16187454 42.21649582 30.43082001 42.21508087 29.6776123 42.21362305 C27.333979 42.2080086 24.99043993 42.19545373 22.64683533 42.18275452 C21.06155024 42.17774137 19.47626367 42.17317815 17.89097595 42.16908264 C13.9970299 42.15888373 10.10328856 42.13931138 6.20933533 42.12025452 C6.20933533 51.03025452 6.20933533 59.94025452 6.20933533 69.12025452 C18.08933533 69.12025452 29.96933533 69.12025452 42.20933533 69.12025452 C43.20933533 75.12025452 43.20933533 75.12025452 42.20933533 77.12025452 C35.96137858 77.14552576 29.71343491 77.16308795 23.46543884 77.17518616 C21.33815519 77.1802275 19.21087502 77.18706043 17.08360291 77.19569397 C14.03305707 77.20776831 10.98255687 77.21348466 7.93199158 77.21791077 C6.49606407 77.22565269 6.49606407 77.22565269 5.03112793 77.23355103 C4.15029037 77.23362656 3.26945282 77.23370209 2.36192322 77.23377991 C1.58248856 77.23600052 0.80305389 77.23822113 0 77.24050903 C-1.79066467 77.12025452 -1.79066467 77.12025452 -2.79066467 76.12025452 C-2.89090022 73.78311127 -2.9268567 71.47551127 -2.9200592 69.13783264 C-2.92181152 68.40777512 -2.92356384 67.67771759 -2.92536926 66.92553711 C-2.92978766 64.50083573 -2.92684984 62.0762067 -2.92347717 59.65150452 C-2.92415022 57.97381069 -2.92512024 56.29611695 -2.92637634 54.61842346 C-2.9278533 51.09770278 -2.92569883 47.57700742 -2.92103577 44.05628967 C-2.91533848 39.53314956 -2.91861749 35.01006878 -2.92460823 30.48693085 C-2.92821391 27.02123056 -2.92707523 23.55554445 -2.92448044 20.08984375 C-2.92381119 18.42160027 -2.92463953 16.75335552 -2.92695999 15.08511353 C-2.92948663 12.75759958 -2.9256458 10.43018304 -2.9200592 8.10267639 C-2.92208344 7.40653732 -2.92410767 6.71039825 -2.92619324 5.99316406 C-2.90028091 0.1947723 -2.90028091 0.1947723 0 0 Z " fill="#FEFFFF" transform="translate(1049.7906646728516,356.87974548339844)"/>
<path d="M0 0 C2.97 0 5.94 0 9 0 C9.50769806 1.52309418 10.01539222 3.04618965 10.52307129 4.56929016 C10.98614535 5.95846038 11.44928261 7.34760954 11.91247559 8.73674011 C13.23118729 12.69193206 14.54872214 16.64751022 15.86425781 20.60375977 C18.428549 28.311542 20.99987345 36.01655832 23.61236572 43.7081604 C24.72784989 46.99359557 25.8379305 50.28084511 26.94763184 53.5682373 C27.4808156 55.14264226 28.01668829 56.71613925 28.55529785 58.28869629 C29.30931828 60.49099839 30.05402756 62.69625241 30.796875 64.90234375 C31.02129272 65.5497905 31.24571045 66.19723724 31.47692871 66.86430359 C32.6407045 70.35345452 33.2463866 73.32036463 33 77 C30.36 77 27.72 77 25 77 C18 59.15 18 59.15 18 54 C9.09 54 0.18 54 -9 54 C-10.97370036 61.21817204 -10.97370036 61.21817204 -12.9140625 68.4453125 C-13.14867187 69.32960938 -13.38328125 70.21390625 -13.625 71.125 C-13.98464844 72.49011719 -13.98464844 72.49011719 -14.3515625 73.8828125 C-15 76 -15 76 -16 77 C-18.67058851 77.14115161 -21.32432238 77.04247107 -24 77 C-23.41498742 71.95249032 -22.29734614 67.3720896 -20.62890625 62.56640625 C-20.39081238 61.86320755 -20.15271851 61.16000885 -19.90740967 60.4355011 C-19.39605016 58.92610683 -18.88213222 57.41757729 -18.36587524 55.90985107 C-16.99582861 51.90676478 -15.64569459 47.89699886 -14.296875 43.88671875 C-14.02164505 43.06911072 -13.7464151 42.25150269 -13.46284485 41.40911865 C-10.16285482 31.56501085 -7.09051814 21.6510416 -4.03540039 11.72875977 C-3.64860107 10.47506592 -3.26180176 9.22137207 -2.86328125 7.9296875 C-2.52594971 6.82866699 -2.18861816 5.72764648 -1.84106445 4.59326172 C-1 2 -1 2 0 0 Z M4 11 C2.57231067 15.66201319 1.14823891 20.32510989 -0.27246094 24.98925781 C-0.75648803 26.57647685 -1.24151013 28.16339281 -1.72753906 29.75 C-2.42513356 32.0278596 -3.11916684 34.30677777 -3.8125 36.5859375 C-4.03123779 37.29744965 -4.24997559 38.00896179 -4.4753418 38.74203491 C-5.60941038 42.30680063 -5.60941038 42.30680063 -6 46 C0.93 46 7.86 46 15 46 C12.24321988 34.16206183 8.59461 22.605413 5 11 C4.67 11 4.34 11 4 11 Z " fill="#FFFFFF" transform="translate(822,357)"/>
<path d="M0 0 C0.87760986 -0.00315216 1.75521973 -0.00630432 2.65942383 -0.009552 C3.61357178 -0.00752777 4.56771973 -0.00550354 5.55078125 -0.00341797 C6.52362061 -0.00437469 7.49645996 -0.00533142 8.4987793 -0.00631714 C10.56005925 -0.00699905 12.62134133 -0.00514399 14.68261719 -0.00097656 C17.84965813 0.00437153 21.01655725 -0.00092119 24.18359375 -0.00732422 C26.1809899 -0.00666344 28.17838596 -0.00538228 30.17578125 -0.00341797 C31.1299292 -0.0054422 32.08407715 -0.00746643 33.06713867 -0.009552 C34.38355347 -0.00482376 34.38355347 -0.00482376 35.7265625 0 C36.50298096 0.00079559 37.27939941 0.00159119 38.0793457 0.00241089 C39.86328125 0.12939453 39.86328125 0.12939453 40.86328125 1.12939453 C40.98828125 4.12939453 40.98828125 4.12939453 40.86328125 7.12939453 C39.86328125 8.12939453 39.86328125 8.12939453 36.44506836 8.24291992 C34.92691137 8.24276081 33.40874896 8.23706679 31.890625 8.22705078 C31.09298233 8.22563583 30.29533966 8.22422089 29.473526 8.22276306 C26.9159069 8.2171477 24.35837407 8.20459265 21.80078125 8.19189453 C20.0709648 8.18688151 18.34114699 8.18231826 16.61132812 8.17822266 C12.36191886 8.16802244 8.11269709 8.14845021 3.86328125 8.12939453 C3.86328125 17.03939453 3.86328125 25.94939453 3.86328125 35.12939453 C4.85328125 34.63439453 4.85328125 34.63439453 5.86328125 34.12939453 C13.23167632 33.67472043 20.6843034 34.20876825 28.05078125 34.56689453 C29.32586548 34.62562744 29.32586548 34.62562744 30.62670898 34.68554688 C36.7436324 35.00974568 36.7436324 35.00974568 37.86328125 36.12939453 C37.98828125 39.12939453 37.98828125 39.12939453 37.86328125 42.12939453 C36.86328125 43.12939453 36.86328125 43.12939453 33.72045898 43.24291992 C32.32925428 43.24276086 30.93804364 43.2370696 29.546875 43.22705078 C28.81582047 43.22563583 28.08476593 43.22422089 27.33155823 43.22276306 C24.98792493 43.21714861 22.64438586 43.20459375 20.30078125 43.19189453 C18.71549617 43.18688139 17.13020959 43.18231816 15.54492188 43.17822266 C11.65100515 43.1671745 7.7571592 43.14990025 3.86328125 43.12939453 C3.86851807 44.12382568 3.87375488 45.11825684 3.87915039 46.14282227 C3.89720166 49.81973374 3.90871371 53.49664128 3.91821289 57.17358398 C3.92325282 58.76734068 3.93008475 60.36109272 3.9387207 61.95483398 C3.95080124 64.24089706 3.9565128 66.5268992 3.9609375 68.81298828 C3.96609879 69.52966171 3.97126007 70.24633514 3.97657776 70.98472595 C3.97677388 72.70003126 3.92520132 74.41520719 3.86328125 76.12939453 C2.86328125 77.12939453 2.86328125 77.12939453 -0.63671875 77.25439453 C-4.13671875 77.12939453 -4.13671875 77.12939453 -5.13671875 76.12939453 C-5.2369543 73.79225128 -5.27291078 71.48465128 -5.26611328 69.14697266 C-5.2678656 68.41691513 -5.26961792 67.6868576 -5.27142334 66.93467712 C-5.27584174 64.50997575 -5.27290392 62.08534671 -5.26953125 59.66064453 C-5.27020429 57.9829507 -5.27117432 56.30525697 -5.27243042 54.62756348 C-5.27390738 51.10684279 -5.27175291 47.58614743 -5.26708984 44.06542969 C-5.26139255 39.54228958 -5.26467157 35.01920879 -5.27066231 30.49607086 C-5.27426798 27.03037058 -5.27312931 23.56468446 -5.27053452 20.09898376 C-5.26986526 18.43074029 -5.27069361 16.76249554 -5.27301407 15.09425354 C-5.2755407 12.7667396 -5.27169988 10.43932306 -5.26611328 8.11181641 C-5.26813751 7.41567734 -5.27016174 6.71953827 -5.27224731 6.00230408 C-5.24899841 0.79990418 -5.20590586 0.00533447 0 0 Z " fill="#FEFEFE" transform="translate(448.13671875,356.87060546875)"/>
<path d="M0 0 C7.67211202 -0.02526605 15.3442134 -0.04283123 23.01635742 -0.05493164 C25.62866619 -0.05997377 28.24097211 -0.06680725 30.85327148 -0.07543945 C34.59880268 -0.08751036 38.34429672 -0.09322935 42.08984375 -0.09765625 C43.26586655 -0.10281754 44.44188934 -0.10797882 45.65354919 -0.11329651 C46.73459427 -0.11337204 47.81563934 -0.11344757 48.92944336 -0.11352539 C49.88652695 -0.115746 50.84361053 -0.11796661 51.82969666 -0.12025452 C54 0 54 0 55 1 C55.125 4 55.125 4 55 7 C54 8 54 8 51.86694336 8.11352539 C50.95050049 8.10828857 50.03405762 8.10305176 49.08984375 8.09765625 C48.10048828 8.09443359 47.11113281 8.09121094 46.09179688 8.08789062 C45.05087891 8.07951172 44.00996094 8.07113281 42.9375 8.0625 C41.89271484 8.05798828 40.84792969 8.05347656 39.77148438 8.04882812 C37.1809334 8.03699913 34.59049441 8.02051689 32 8 C32.00222061 8.84968857 32.00444122 9.69937714 32.00672913 10.57481384 C32.02673014 18.56536725 32.04197316 26.5559123 32.05181217 34.54648495 C32.05704046 38.65494285 32.06413713 42.76338014 32.07543945 46.87182617 C32.08627025 50.83346828 32.09227724 54.79509052 32.09487724 58.75674629 C32.09673114 60.27148311 32.1003511 61.78621879 32.10573006 63.30094719 C32.11294307 65.41541813 32.11399083 67.52980594 32.11352539 69.64428711 C32.115746 70.85007919 32.11796661 72.05587128 32.12025452 73.29820251 C32 76 32 76 31 77 C27.5 77.125 27.5 77.125 24 77 C23 76 23 76 22.87974548 73.29820251 C22.88196609 72.09241043 22.88418671 70.88661835 22.88647461 69.64428711 C22.88632858 68.98089828 22.88618256 68.31750946 22.8860321 67.63401794 C22.88673119 65.43176044 22.89452335 63.22958655 22.90234375 61.02734375 C22.90420794 59.50419664 22.90563184 57.98104893 22.90663147 56.457901 C22.91045654 52.44162349 22.92028672 48.42538192 22.93133545 44.40911865 C22.94154981 40.31376634 22.94612914 36.21840824 22.95117188 32.12304688 C22.96190901 24.08201288 22.97950571 16.04101505 23 8 C15.41 8 7.82 8 0 8 C-1 2 -1 2 0 0 Z " fill="#FFFFFF" transform="translate(557,357)"/>
</svg>
